<?xml version="1.0" encoding="utf-8"?>
<!-- Generator: Adobe Illustrator 23.0.1, SVG Export Plug-In . SVG Version: 6.00 Build 0)  -->
<svg version="1.1" id="Layer_1" xmlns="http://www.w3.org/2000/svg" xmlns:xlink="http://www.w3.org/1999/xlink" x="0px" y="0px"
	 viewBox="0 0 294.62 233.31" style="enable-background:new 0 0 294.62 233.31;" xml:space="preserve">
<style type="text/css">
	.st0{fill:#52606B;}
	.st1{enable-background:new    ;}
	.st2{fill:#88C6C7;}
	.st3{fill:#C6E4E5;}
	.st4{fill:#B0D7DA;}
</style>
<g>
	<path class="st0" d="M25.68,191.55h-2.23v-3.37h9.5v3.37h-2.57l4.56,13.77c0.31,0.99,0.41,2.18,0.41,2.18h0.14
		c0,0,0.1-1.19,0.45-2.18l4.53-13.77h-2.54v-3.37h9.5v3.37h-2.26l-7.41,20.77h-4.67L25.68,191.55z"/>
	<path class="st0" d="M59.23,208.99h2.92v-17.44h-2.92v-3.37h18.08v6.22h-3.84v-2.65h-6.83v6.63h8.03v3.57h-8.03v6.8h7.34v-2.72
		h3.84v6.29H59.23V208.99z"/>
	<path class="st0" d="M90.92,208.99h2.92v-17.44h-2.92v-3.37h10.74c1.78,0,3.26,0.1,4.63,0.51c2.71,0.88,4.49,3.06,4.49,6.46
		c0,3.37-1.78,5.75-4.6,6.7v0.07c0,0,0.72,0.37,1.2,1.26l2.81,5.03c0.34,0.61,0.82,0.78,1.65,0.78h0.79v3.33h-2.85
		c-2.02,0-2.64-0.41-3.4-1.8l-3.46-6.22c-0.51-0.92-0.96-1.22-2.37-1.22h-2.23v5.92h2.81v3.33H90.92V208.99z M102.38,199.5
		c2.37,0,3.91-1.39,3.91-3.98c0-1.56-0.58-2.79-1.92-3.33c-0.69-0.31-1.61-0.44-2.74-0.44h-3.29v7.75H102.38z"/>
	<path class="st0" d="M129.1,204.53v1.8c0,1.56,1.99,2.48,4.29,2.48c2.47,0,4.22-1.05,4.22-2.99c0-2.45-2.78-3.23-5.59-4.32
		c-3.26-1.22-6.45-2.69-6.45-7c0-4.86,3.98-6.73,8.16-6.73c3.84,0,7.72,1.46,7.72,4.25v3.16h-4.08v-1.63c0-1.22-1.82-1.87-3.64-1.87
		c-1.99,0-3.64,0.82-3.64,2.65c0,2.21,2.26,2.99,4.8,3.94c3.64,1.29,7.27,2.72,7.27,7.24c0,4.93-4.18,7.21-8.78,7.21
		c-4.05,0-8.37-1.8-8.37-5.44v-2.75H129.1z"/>
	<path class="st0" d="M155.24,208.99h2.92v-17.44h-2.92v-3.37h10.36v3.37h-2.95v17.44h2.95v3.33h-10.36V208.99z"/>
	<path class="st0" d="M190.95,187.77c7.2,0,12.62,5.41,12.62,12.31c0,7.11-5.42,12.65-12.62,12.65c-7.2,0-12.62-5.54-12.62-12.65
		C178.32,193.18,183.74,187.77,190.95,187.77z M190.95,208.82c4.39,0,7.99-3.77,7.99-8.74c0-4.76-3.6-8.4-7.99-8.4
		s-7.99,3.64-7.99,8.4C182.95,205.04,186.55,208.82,190.95,208.82z"/>
	<path class="st0" d="M216.26,208.99h2.92v-17.44h-2.92v-3.37h7.41l10.26,15.54c0.48,0.78,0.89,2.04,0.89,2.04h0.1
		c0,0-0.17-1.39-0.14-2.28v-11.93h-3.02v-3.37h10.43v3.37h-2.92v20.77h-4.49l-10.26-15.47c-0.48-0.82-0.89-2.04-0.89-2.04h-0.14
		c0,0,0.21,1.36,0.17,2.24v11.93h3.02v3.33h-10.43V208.99z"/>
	<path class="st0" d="M259.07,204.53v1.8c0,1.56,1.99,2.48,4.29,2.48c2.47,0,4.22-1.05,4.22-2.99c0-2.45-2.78-3.23-5.59-4.32
		c-3.26-1.22-6.45-2.69-6.45-7c0-4.86,3.98-6.73,8.16-6.73c3.84,0,7.72,1.46,7.72,4.25v3.16h-4.08v-1.63c0-1.22-1.82-1.87-3.64-1.87
		c-1.99,0-3.64,0.82-3.64,2.65c0,2.21,2.26,2.99,4.8,3.94c3.64,1.29,7.27,2.72,7.27,7.24c0,4.93-4.19,7.21-8.78,7.21
		c-4.05,0-8.37-1.8-8.37-5.44v-2.75H259.07z"/>
</g>
<g>
	<g>
		<g class="st1">
			<g>
				<polygon class="st2" points="126.95,106.45 148.39,97.67 148.38,143.57 126.95,156.01 				"/>
			</g>
			<g>
				<polygon class="st3" points="126.9,81.6 148.6,68.86 177.07,89.96 158.96,100.97 				"/>
			</g>
			<g>
				<polygon class="st3" points="105.79,20.39 127.08,7.11 148.38,19.61 125.46,32.28 				"/>
			</g>
			<g>
				<polygon class="st2" points="125.46,32.28 148.38,19.61 148.41,69.18 126.9,81.6 				"/>
			</g>
			<g>
				<polygon class="st2" points="169.83,56.81 191.07,44.55 191.32,168.37 169.88,180.79 				"/>
			</g>
			<g>
				<polygon class="st3" points="148.41,44.38 170.32,32.28 191.07,44.55 169.83,56.81 				"/>
			</g>
			<g>
				<polygon class="st4" points="169.83,56.81 169.88,180.79 148.4,168.39 148.38,118.29 126.95,106.45 126.95,156.01 
					105.45,143.61 105.79,20.39 125.46,32.28 126.9,81.6 148.39,94.01 148.41,44.38 				"/>
			</g>
		</g>
	</g>
	<g>
		<g class="st1">
			<g>
				<polygon class="st4" points="84.28,83.44 62.8,71.03 62.8,71.03 84.28,58.63 				"/>
			</g>
			<g>
				<polygon class="st3" points="62.85,95.87 41.39,81.56 62.8,71.03 84.28,83.44 				"/>
			</g>
			<g>
				<polygon class="st4" points="41.32,182.63 19.86,170.24 19.87,46.24 41.31,58.63 				"/>
			</g>
			<g>
				<polygon class="st3" points="41.31,58.63 19.87,46.24 84.28,9.04 105.79,21.41 				"/>
			</g>
			<g>
				<path class="st2" d="M41.31,58.63l64.48-37.22v74.44l-42.94,24.79v49.57l-21.53,12.43L41.31,58.63z M84.28,58.63L62.8,71.03
					l0.05,24.84l21.43-12.44V58.63z"/>
			</g>
		</g>
	</g>
	<g>
		<g class="st1">
			<g>
				<polygon class="st4" points="255.5,83.67 234.02,71.27 234.02,71.27 255.5,58.87 				"/>
			</g>
			<g>
				<polygon class="st3" points="234.07,96.11 212.61,81.79 234.02,71.27 255.5,83.67 				"/>
			</g>
			<g>
				<polygon class="st4" points="212.54,182.87 191.07,170.47 191.09,46.48 212.52,58.86 				"/>
			</g>
			<g>
				<polygon class="st3" points="212.52,58.86 191.09,46.48 255.5,9.28 277,21.64 				"/>
			</g>
			<g>
				<path class="st2" d="M212.52,58.86L277,21.64v74.44l-42.94,24.79v49.57l-21.53,12.43L212.52,58.86z M255.5,58.87l-21.48,12.4
					l0.05,24.84l21.43-12.44V58.87z"/>
			</g>
		</g>
	</g>
</g>
<rect x="-504.97" y="188.18" style="fill:none;" width="308.33" height="90.25"/>
<text transform="matrix(1.0088 0 0 1 -476.4101 212.3187)" class="st0" style="font-family:'MuseoSlab-700'; font-size:34px; letter-spacing:8.92;">Versions</text>
<g>
	<g>
		<g class="st1">
			<g>
				<polygon class="st2" points="-372.28,106.45 -350.84,97.67 -350.85,143.57 -372.28,156.01 				"/>
			</g>
			<g>
				<polygon class="st3" points="-372.33,81.6 -350.63,68.86 -322.16,89.96 -340.27,100.97 				"/>
			</g>
			<g>
				<polygon class="st3" points="-393.44,20.39 -372.15,7.11 -350.85,19.61 -373.77,32.28 				"/>
			</g>
			<g>
				<polygon class="st2" points="-373.77,32.28 -350.85,19.61 -350.82,69.18 -372.33,81.6 				"/>
			</g>
			<g>
				<polygon class="st2" points="-329.4,56.81 -308.16,44.55 -307.91,168.37 -329.35,180.79 				"/>
			</g>
			<g>
				<polygon class="st3" points="-350.82,44.38 -328.91,32.28 -308.16,44.55 -329.4,56.81 				"/>
			</g>
			<g>
				<polygon class="st4" points="-329.4,56.81 -329.35,180.79 -350.83,168.39 -350.85,118.29 -372.28,106.45 -372.28,156.01 
					-393.78,143.61 -393.44,20.39 -373.77,32.28 -372.33,81.6 -350.84,94.01 -350.82,44.38 				"/>
			</g>
		</g>
	</g>
	<g>
		<g class="st1">
			<g>
				<polygon class="st4" points="-414.95,83.44 -436.43,71.03 -436.43,71.03 -414.95,58.63 				"/>
			</g>
			<g>
				<polygon class="st3" points="-436.38,95.87 -457.84,81.56 -436.43,71.03 -414.95,83.44 				"/>
			</g>
			<g>
				<polygon class="st4" points="-457.91,182.63 -479.37,170.24 -479.36,46.24 -457.93,58.63 				"/>
			</g>
			<g>
				<polygon class="st3" points="-457.93,58.63 -479.36,46.24 -414.95,9.04 -393.44,21.41 				"/>
			</g>
			<g>
				<path class="st2" d="M-457.93,58.63l64.48-37.22v74.44l-42.94,24.79v49.57l-21.53,12.43L-457.93,58.63z M-414.95,58.63
					l-21.48,12.4l0.05,24.84l21.43-12.44V58.63z"/>
			</g>
		</g>
	</g>
	<g>
		<g class="st1">
			<g>
				<polygon class="st4" points="-243.73,83.67 -265.21,71.27 -265.21,71.27 -243.73,58.87 				"/>
			</g>
			<g>
				<polygon class="st3" points="-265.17,96.11 -286.62,81.79 -265.21,71.27 -243.73,83.67 				"/>
			</g>
			<g>
				<polygon class="st4" points="-286.69,182.87 -308.16,170.47 -308.14,46.48 -286.71,58.86 				"/>
			</g>
			<g>
				<polygon class="st3" points="-286.71,58.86 -308.14,46.48 -243.73,9.28 -222.23,21.64 				"/>
			</g>
			<g>
				<path class="st2" d="M-286.71,58.86l64.48-37.22v74.44l-42.94,24.79v49.57l-21.53,12.43L-286.71,58.86z M-243.73,58.87
					l-21.48,12.4l0.05,24.84l21.43-12.44V58.87z"/>
			</g>
		</g>
	</g>
</g>
</svg>
